<?xml version="1.0" ?><!DOCTYPE svg  PUBLIC '-//W3C//DTD SVG 1.1//EN'  'http://www.w3.org/Graphics/SVG/1.1/DTD/svg11.dtd'>
<svg class="c01115" xmlns="http://www.w3.org/2000/svg" viewBox="0 0 16 16" width="16" height="16" slot="before"><path d="M4.667,3.764c2.918,0,5.282,1.864,5.325,4.174,0,.013.007.025.007.039V8c0,.029-.014.224-.024.292a1.989,1.989,0,0,1-.4.932,2.291,2.291,0,0,1-.165.19l0,.005a.285.285,0,0,0-.052.076.343.343,0,0,0-.046.162v0a.6.6,0,0,0,.295.452,1.425,1.425,0,0,0,.173.109,4.882,4.882,0,0,0,2.2.435h.227a3.717,3.717,0,0,0,1.891-.524A3.838,3.838,0,0,0,16,6.826a6.13,6.13,0,0,0-.15-1.338c-.011-.038-.021-.076-.032-.113a8.092,8.092,0,0,0-.526-1.295A8.016,8.016,0,0,0,8,0,8,8,0,0,0,.415,5.467,5.851,5.851,0,0,1,4.667,3.764Z" style="fill:#ffffff;"></path><path d="M4.238,11.022A5.333,5.333,0,0,1,7.022,6.257l.007,0c.049-.027.1-.052.152-.075l.036-.018.048-.018a1.881,1.881,0,0,1,.968-.124A5.294,5.294,0,0,0,4.68,4.734C2.107,4.734.013,6.335.013,8.3h0c0,.051,0,.1.005.153v.013a7.993,7.993,0,0,0,5.543,7.15,8.055,8.055,0,0,0,1.9.339A5.3,5.3,0,0,1,4.238,11.022Z" style="fill:#ffffff;"></path><path d="M4.905,11.022a4.532,4.532,0,0,0,4.4,4.645,5.787,5.787,0,0,0,1.753-.3,8.007,8.007,0,0,0,3.715-3.1.251.251,0,0,0-.334-.353,5.744,5.744,0,0,1-.658.294,6.371,6.371,0,0,1-2.244.4,6.305,6.305,0,0,1-2.666-.58c-.02-.009-.04-.021-.06-.031A4.68,4.68,0,0,1,6.021,8.274C6.012,8.169,6,8.065,6,7.959V7.951A4.8,4.8,0,0,0,4.905,11.022Z" style="fill:#ffffff;"></path></svg>